<svg xmlns="http://www.w3.org/2000/svg" xmlns:xlink="http://www.w3.org/1999/xlink" viewBox="0 0 500 500"><defs><style>.cls-1{fill:none;}.cls-2{font-size:29.2px;}.cls-2,.cls-3,.cls-4{fill:#fff;}.cls-2,.cls-4{font-family:SofiaPro-Bold, 'Sofia Pro';}.cls-5{fill:url(#linear-gradient);}.cls-6{clip-path:url(#clippath);}.cls-7{fill:#f8d9af;}.cls-8{fill:#fcb444;}.cls-9{fill:#fdc06e;}.cls-10{fill:#fdf8f2;}.cls-11{fill:#2d3079;}.cls-12{clip-path:url(#clippath-1);}.cls-13{clip-path:url(#clippath-2);}.cls-14{fill:url(#linear-gradient-3);}.cls-15{fill:url(#linear-gradient-4);}.cls-16{fill:url(#linear-gradient-2);}.cls-17{fill:url(#linear-gradient-6);}.cls-18{fill:url(#linear-gradient-5);}.cls-4{font-size:50.88px;}</style><clipPath id="clippath"><circle class="cls-1" cx="250" cy="250" r="236.53"></circle></clipPath><linearGradient id="linear-gradient" x1="13.47" y1="250" x2="486.53" y2="250" gradientUnits="userSpaceOnUse"><stop offset="0" stop-color="#108bc9"></stop><stop offset="1" stop-color="#1f2b5b"></stop></linearGradient><linearGradient id="linear-gradient-2" x1="250" y1="539.85" x2="250" y2="82.84" gradientUnits="userSpaceOnUse"><stop offset="0" stop-color="#108bc9"></stop><stop offset=".33" stop-color="#1088c6"></stop><stop offset=".5" stop-color="#1182be"></stop><stop offset=".64" stop-color="#1376b1"></stop><stop offset=".76" stop-color="#15659d"></stop><stop offset=".87" stop-color="#194f84"></stop><stop offset=".97" stop-color="#1d3466"></stop><stop offset="1" stop-color="#1f2b5b"></stop></linearGradient><linearGradient id="linear-gradient-3" x1="229.84" y1="544.08" x2="269.67" y2="88.79" xlink:href="#linear-gradient"></linearGradient><clipPath id="clippath-1"><circle class="cls-1" cx="250" cy="249.82" r="159.08"></circle></clipPath><linearGradient id="linear-gradient-4" x1="249.87" y1="408.5" x2="249.87" y2="90.33" xlink:href="#linear-gradient-2"></linearGradient><clipPath id="clippath-2"><rect class="cls-1" x="548.79" y="-1349.69" width="1000" height="400.36"></rect></clipPath><linearGradient id="linear-gradient-5" x1="170.57" y1="-1442.13" x2="1398.63" y2="-1442.13" gradientTransform="translate(1555.06 1081.31) rotate(-49.72)" gradientUnits="userSpaceOnUse"><stop offset="0" stop-color="#3e98b9"></stop><stop offset="1" stop-color="#8ba2a2"></stop></linearGradient><linearGradient id="linear-gradient-6" x1="1268.45" y1="-566.12" x2="609" y2="-409.4" gradientTransform="translate(142.48 221.11) rotate(-13.11)" gradientUnits="userSpaceOnUse"><stop offset="0" stop-color="#ec9bac"></stop><stop offset="1" stop-color="#f2d1ca"></stop></linearGradient></defs><g id="Board_9_Vision_Badge_Full"><g><g class="cls-6"><g><circle class="cls-5" cx="250" cy="250" r="236.53"></circle><circle class="cls-16" cx="250" cy="311.35" r="228.5"></circle><circle class="cls-14" cx="249.76" cy="316.43" r="228.5"></circle></g></g><g class="cls-12"><circle class="cls-15" cx="249.87" cy="249.42" r="159.08"></circle></g><text class="cls-4" transform="translate(167.53 175.03)"><tspan x="0" y="0">VISION</tspan></text><g><text class="cls-2" transform="translate(89.26 394.65) rotate(43.63)"><tspan x="0" y="0">R</tspan></text><text class="cls-2" transform="translate(103.96 408.6) rotate(38.3)"><tspan x="0" y="0">U</tspan></text><text class="cls-2" transform="translate(120.96 421.88) rotate(32.93)"><tspan x="0" y="0">B</tspan></text><text class="cls-2" transform="translate(137.2 432.39) rotate(27.85)"><tspan x="0" y="0">Y</tspan></text><text class="cls-2" transform="translate(154.65 441.39) rotate(24.42)"><tspan x="0" y="0"> </tspan></text><text class="cls-2" transform="translate(162.23 445.23) rotate(19.64)"><tspan x="0" y="0">M</tspan></text><text class="cls-2" transform="translate(189.35 454.4) rotate(14.57)"><tspan x="0" y="0">I</tspan></text><text class="cls-2" transform="translate(199.13 457.04) rotate(10.93)"><tspan x="0" y="0">S</tspan></text><text class="cls-2" transform="translate(217.33 460.49) rotate(6.17)"><tspan x="0" y="0">S</tspan></text><text class="cls-2" transform="translate(235.39 462.28) rotate(2.56)"><tspan x="0" y="0">I</tspan></text><text class="cls-2" transform="translate(245.73 462.95) rotate(-1.81)"><tspan x="0" y="0">O</tspan></text><text class="cls-2" transform="translate(270.54 461.99) rotate(-7.76)"><tspan x="0" y="0">N</tspan></text><text class="cls-2" transform="translate(291.43 458.89) rotate(-11.53)"><tspan x="0" y="0"> </tspan></text><text class="cls-2" transform="translate(299.45 457.42) rotate(-15.25)"><tspan x="0" y="0">&amp;</tspan></text><text class="cls-2" transform="translate(319.28 451.76) rotate(-18.96)"><tspan x="0" y="0"> </tspan></text><text class="cls-2" transform="translate(326.36 449.46) rotate(-22.17)"><tspan x="0" y="0">V</tspan></text><text class="cls-2" transform="translate(343.03 442.5) rotate(-25.8)"><tspan x="0" y="0">I</tspan></text><text class="cls-2" transform="translate(352.2 438.16) rotate(-29.44)"><tspan x="0" y="0">S</tspan></text><text class="cls-2" transform="translate(367.92 429.1) rotate(-33.07)"><tspan x="0" y="0">I</tspan></text><text class="cls-2" transform="translate(376.74 423.61) rotate(-37.51)"><tspan x="0" y="0">O</tspan></text><text class="cls-2" transform="translate(396.34 408.34) rotate(-43.47)"><tspan x="0" y="0">N</tspan></text></g><g id="Logo"><rect class="cls-3" x="207.37" y="39.42" width="8.25" height="22.4"></rect><rect class="cls-3" x="251.37" y="29.81" width="8.25" height="32.01"></rect><polygon class="cls-3" points="271.63 39.37 278.09 61.89 278.09 68.22 286.35 68.22 286.35 61.9 279.89 39.37 271.63 39.37"></polygon><path class="cls-3" d="M237.34,61.95h0c-4.56,0-8.25-3.75-8.25-8.36v-14.17h8.25v22.53Z"></path><path class="cls-3" d="M239.66,61.95c4.56,0,8.25-3.75,8.25-8.36v-14.17h-8.25v22.53Z"></path><path class="cls-3" d="M262.01,39.31v22.65c3.11,0,8.81-1.82,8.81-11.27s-5.7-11.37-8.81-11.37"></path><path class="cls-3" d="M290.79,66.73h.26c.15,0,.22-.12,.22-.22s-.07-.22-.22-.22h-.26v.44Zm.43,.22l.37,.53h-.32l-.36-.51h-.12v.51h-.28v-1.45h.56c.32,0,.48,.22,.48,.46,0,.27-.11,.41-.32,.46m.97-.22c0-.68-.53-1.23-1.2-1.23s-1.2,.55-1.2,1.23,.53,1.23,1.2,1.23,1.2-.55,1.2-1.23m.26,0c0,.82-.64,1.49-1.45,1.49s-1.45-.67-1.45-1.49,.64-1.49,1.45-1.49,1.45,.67,1.45,1.49"></path><path class="cls-3" d="M226.56,43.6c0,2.53-2.03,4.59-4.52,4.59s-4.52-2.05-4.52-4.59,2.03-4.59,4.52-4.59,4.52,2.05,4.52,4.59"></path><path class="cls-3" d="M292.63,43.54c0,2.5-2,4.52-4.46,4.52s-4.46-2.03-4.46-4.52,2-4.52,4.46-4.52,4.46,2.03,4.46,4.52"></path></g><g><rect class="cls-11" x="313.34" y="203.43" width="10.29" height="70.08" transform="translate(-51.05 91) rotate(-15.07)"></rect><path class="cls-11" d="M190.35,269.51c-3.41,.78-6.83,1.56-10.24,2.33-1.61-6.58-3.23-13.16-4.84-19.74-3.32,.9-6.65,1.8-9.97,2.7l12.42,47.92c.92-.25,3.62-.96,10.68-2.85-1.75-6.17-3.5-12.35-5.25-18.52,3.16-1.01,6.32-2.02,9.48-3.03-.76-2.94-1.53-5.87-2.29-8.81Z"></path><path class="cls-10" d="M190.73,267.64c-3.33,.76-6.67,1.52-10,2.28-1.57-6.42-3.15-12.84-4.72-19.27-3.24,.88-6.49,1.76-9.73,2.63,3.99,15.81,7.99,31.61,11.98,47.42,3.6-.92,7.2-1.83,10.8-2.75l-5.3-18.35c3.12-1.02,6.23-2.04,9.35-3.05-.79-2.97-1.58-5.94-2.38-8.91Z"></path><rect class="cls-8" x="190.67" y="254.54" width="21.1" height="30.1" transform="translate(-62.75 61.05) rotate(-14.95)"></rect><rect class="cls-8" x="296.32" y="226.99" width="20.01" height="30.39" transform="translate(-52.43 87.96) rotate(-15.07)"></rect><rect class="cls-10" x="209.62" y="230.89" width="89.44" height="49.4" transform="translate(-57.7 74.91) rotate(-15.07)"></rect><path class="cls-7" d="M303.95,267.82l-86.37,23.25c-2.27-8.42-4.53-16.84-6.8-25.27,28.69-8.11,57.38-16.23,86.08-24.34,2.37,8.79,4.73,17.57,7.1,26.35Z"></path><path class="cls-9" d="M242.45,291.02l-34.46,68.68h11.15l26.26-52.33v52.33h9.97v-51.59l25.06,51.59h11.08l-33.32-68.59c5.27-2.8,8.86-8.33,8.86-14.72,0-9.2-7.46-16.65-16.65-16.65s-16.65,7.46-16.65,16.65c0,6.32,3.52,11.81,8.7,14.63Z"></path><circle class="cls-10" cx="250.6" cy="276" r="6.5"></circle><rect class="cls-10" x="315.42" y="202.83" width="10.29" height="70.08" transform="translate(-50.82 91.52) rotate(-15.07)"></rect></g><path class="cls-11" d="M244.87,275.69c.18,2.93,2.3,5.26,4.9,5.62,2.01,.27,4.07-.67,5.35-2.41-.74,.25-3.02,.91-5.73,.04-2.61-.84-4.05-2.6-4.52-3.24Z"></path></g></g><g id="Board_4_Sharepoint_Banner"><g class="cls-13"><g><circle class="cls-18" cx="962.22" cy="-449.67" r="614.03"></circle><path class="cls-17" d="M1423.97-133.45c-48.61,57.35-106.97,103.45-173.45,137.02-64.25,32.44-133.37,51.9-205.46,57.85-72.09,5.95-143.47-1.92-212.16-23.39-71.09-22.22-136.21-58.13-193.57-106.74-57.35-48.61-103.45-106.97-137.02-173.45-32.44-64.25-51.9-133.37-57.85-205.46-5.95-72.09,1.92-143.47,23.39-212.16,22.22-71.09,58.13-136.21,106.74-193.57,48.61-57.35,106.97-103.45,173.45-137.02,64.25-32.44,133.37-51.9,205.46-57.85,72.09-5.95,143.47,1.92,212.16,23.39,71.09,22.22,136.21,58.13,193.57,106.74,57.35,48.61,103.45,106.97,137.02,173.45,32.44,64.25,51.9,133.37,57.85,205.46,5.95,72.09-1.92,143.47-23.39,212.16-22.22,71.09-58.13,136.21-106.74,193.57Z"></path></g></g></g></svg>