<svg xmlns="http://www.w3.org/2000/svg" width="119.66" height="119.66"><defs><linearGradient id="a" x1="0%" x2="0%" y1="0%" y2="100%"><stop offset="0%" stop-color="#FF7702"/><stop offset="100%" stop-color="#FE0000"/></linearGradient></defs><path fill="url(#a)" d="M87.651 6.731a60.862 60.862 0 0 0-55.642 0 59.982 59.982 0 0 0 .15 106.2 60.979 60.979 0 0 0 27.671 6.729A59.912 59.912 0 0 0 87.651 6.731ZM5.983 59.83a54.029 54.029 0 0 1 26.176-46.219 53.028 53.028 0 0 1 26.175-7.628L51.6 54.894 32.159 70 12.415 85.407A54.491 54.491 0 0 1 5.983 59.83Zm81.668 46.07a53.646 53.646 0 0 1-55.642 0 52.432 52.432 0 0 1-17.8-17.5l17.8-7.329L59.83 69.7l27.821 11.22 17.949 7.329A53.287 53.287 0 0 1 87.651 105.9Zm0-35.9-19.3-14.958-6.876-49.059A53.4 53.4 0 0 1 87.5 13.611a53.841 53.841 0 0 1 26.177 46.219 52.775 52.775 0 0 1-6.432 25.577Z"/></svg>