<svg xmlns="http://www.w3.org/2000/svg" width="276.349" height="79.347"><defs><linearGradient id="a" x1="0%" x2="0%" y1="0%" y2="100%"><stop offset="0%" stop-color="#FF7702"/><stop offset="100%" stop-color="#FE0000"/></linearGradient></defs><path fill="url(#a)" d="M57.512 8.381c-.983-2.713-3.89-5.553-6.372-6.2a8.409 8.409 0 0 0-4.406.03c-1.372.528-.971.971-2.361.71-.734-.134-1.432-.856-2.142-1.1a11.558 11.558 0 0 0-4.145-.485l-.036-.03c-4.327-3.678-5.947 1.547-5.947 1.547-8.01-1.493-6.336 6.779-6.336 6.779-3.258 4.253 3.909 10.369 7.216 6.796.85 3.69 7.907 3.016 10.08 1.432 1.371-1 .413-1.335 2.112-.194.807.54 1.517 1.693 2.537 1.936 1.547.364 4.818-1.554 4.7-3.277 3.386 4.588 10.171-4.721 5.091-7.95" data-name="Path 611403" opacity=".53"/><path fill="url(#a)" d="M77.926 69.395c0-5.5-17.447-9.965-38.966-9.965S0 63.89 0 69.395s17.441 9.952 38.96 9.952 38.966-4.46 38.966-9.952" data-name="Path 611404" opacity=".53"/><path fill="url(#a)" d="M31.757 59.666c-.467 2.221-.74 4.011-1.22 6.275" data-name="Path 611405"/><path fill="url(#a)" d="M30.537 65.935a77.77 77.77 0 0 1-.886 3.835 1.535 1.535 0 0 1-.158.382l.146.036a3.225 3.225 0 0 1-.225.643l-9.236.085a3.974 3.974 0 0 1-.285-.607 3.5 3.5 0 0 1-.067-1.736 4.787 4.787 0 0 1 .291-.892 3.721 3.721 0 0 1 .977-1.293 4.1 4.1 0 0 1 2.027-.892 5.949 5.949 0 0 1 2.1.067 7 7 0 0 1 1.893.7c.073-.34.158-.661.231-1 .467-2.209 1.335-6.651 1.814-8.933l2.6 3.726" data-name="Path 611406"/><path fill="url(#a)" d="M47.947 65.935c-.479-2.264-.9-4.557-1.371-6.779l1.438-3.222 1.353 1.3c.479 2.276 1.311 5.82 1.778 8.029.073.34.158.668.231 1a7 7 0 0 1 1.893-.7 5.714 5.714 0 0 1 2.106-.067 4.162 4.162 0 0 1 2.021.892 3.564 3.564 0 0 1 .971 1.293 4.036 4.036 0 0 1 .291.892 3.035 3.035 0 0 1-.352 2.342l-9.236-.085a2.792 2.792 0 0 1-.231-.643l.146-.036a1.535 1.535 0 0 1-.159-.387 87.587 87.587 0 0 1-.892-3.835" data-name="Path 611407"/><path fill="url(#a)" d="M26.453 60.455c-.146.577-.3 1.129-.467 1.693a.564.564 0 0 1-.073.164l.067.018a1.274 1.274 0 0 1-.109.279l-4.114-.121a1.592 1.592 0 0 1-.115-.279 1.508 1.508 0 0 1 0-.771 1.59 1.59 0 0 1 .146-.388 1.669 1.669 0 0 1 .455-.564 1.829 1.829 0 0 1 .916-.364 2.549 2.549 0 0 1 .935.073 2.98 2.98 0 0 1 .825.346c.042-.146.085-.291.121-.437.249-.971.473-1.99.728-3 .285-1.135.941-1.5 1.359-2.579l1.02-.218a25.628 25.628 0 0 0-.965 3.156c-.243.983-.473 1.99-.728 3" data-name="Path 611408"/><path fill="url(#a)" d="M52.329 60.455c.146.576.3 1.129.461 1.693a.816.816 0 0 0 .079.164l-.067.018a1.274 1.274 0 0 0 .109.279l4.114-.121a1.212 1.212 0 0 0 .109-.279 1.445 1.445 0 0 0 0-.771 1.59 1.59 0 0 0-.146-.388 1.669 1.669 0 0 0-.455-.564 1.808 1.808 0 0 0-.916-.364 2.592 2.592 0 0 0-.941.073 3.059 3.059 0 0 0-.825.346c-.042-.146-.085-.291-.121-.437-.243-.971-.479-1.99-.728-3a29.01 29.01 0 0 0-1.02-3.332l-1.353.534a25.623 25.623 0 0 1 .965 3.156c.249.983.479 1.99.722 3" data-name="Path 611409"/><path fill="url(#a)" d="M24.972 18.115c-.049-.036-.091-.073-.14-.115l.127.14Z" data-name="Path 611410"/><path fill="url(#a)" d="M66.59 34.015a6.566 6.566 0 0 0-2.106-1.96 9.354 9.354 0 0 0-1.481-.74 6.444 6.444 0 0 0 1.3-1.626 5.924 5.924 0 0 0 .837-2.822 2.678 2.678 0 0 0-.7-1.918 2.913 2.913 0 0 0-2.021-.783 14.561 14.561 0 0 0-1.026-5.547 6.42 6.42 0 0 0-1.863-2.549 5.067 5.067 0 0 0-2.409-1.013 6.55 6.55 0 0 1-.285.886 4.2 4.2 0 0 1 2.13.837 6.648 6.648 0 0 1 2.059 3.567 15.565 15.565 0 0 1 .479 3.872c0 .127 0 .255-.006.376l-.012.485.485-.018.206-.012a2.114 2.114 0 0 1 1.6.528 1.783 1.783 0 0 1 .443 1.28 5.005 5.005 0 0 1-.717 2.369 5.121 5.121 0 0 1-1.7 1.839l-.922.552 1.038.273a8.514 8.514 0 0 1 2.773 1.414 4.837 4.837 0 0 1 1.111 1.183 2.466 2.466 0 0 1 .431 1.359v.036a2.335 2.335 0 0 1-.516 1.566 1.491 1.491 0 0 1-1.147.534 1.828 1.828 0 0 1-.916-.255l-.485.765a2.927 2.927 0 0 1 .983 1.4 5.912 5.912 0 0 1 .352 2.063 5.744 5.744 0 0 1-.668 2.8 2.57 2.57 0 0 1-.759.856 1.751 1.751 0 0 1-.989.3 2.453 2.453 0 0 1-.85-.17l-.37.831a2.97 2.97 0 0 1 1.711 2.725 4.43 4.43 0 0 1-1.117 2.81 3.485 3.485 0 0 1-2.549 1.293 3.2 3.2 0 0 1-2.179-.941l-1.353-1.232.613 1.723a6.455 6.455 0 0 1 .425 2.142 2.67 2.67 0 0 1-.947 2.2 3.75 3.75 0 0 1-2.355.71 6.471 6.471 0 0 1-5.122-2.585l-.661-.965-.164 1.159a6.742 6.742 0 0 1-1.3 3.483 2.639 2.639 0 0 1-2.082 1.007c-1.493.012-3.392-1.2-4.891-3.423l-.686-1.007-.14 1.208a3.792 3.792 0 0 1-1.269 2.496 3.648 3.648 0 0 1-2.4.856 4.192 4.192 0 0 1-1.347-.231 5.01 5.01 0 0 1-2.725-2.4c-.643-1.092-1.117-2.385-1.693-3.6l-.309-.637-.455.546a4.277 4.277 0 0 1-3.4 1.62 6.06 6.06 0 0 1-4.218-1.893 6.321 6.321 0 0 1-1.584-4.691 25.863 25.863 0 0 1 .237-3.1l.049-.394-.382-.1a8.538 8.538 0 0 1-3.15-1.523 3.661 3.661 0 0 1-1.456-2.907v-.025a15.4 15.4 0 0 1 .291-3.465c.194-.862.51-1.705.959-3.162l.14-.443-.449-.127a1.7 1.7 0 0 1-1.02-.752 2.643 2.643 0 0 1-.328-1.365 7.706 7.706 0 0 1 1.384-3.981 6.26 6.26 0 0 1 1.341-1.475 2.211 2.211 0 0 1 1.329-.534 1.065 1.065 0 0 1 .279.03l.977.212-.479-.874a4.826 4.826 0 0 1-.637-2.324 5.176 5.176 0 0 1 1.99-3.854 6.1 6.1 0 0 1 3.611-1.541 1.712 1.712 0 0 1 .922.218 6.271 6.271 0 0 1-.795-1.123c-.042 0-.085-.012-.127-.012a6.933 6.933 0 0 0-4.2 1.766 6.043 6.043 0 0 0-2.312 4.545 5.449 5.449 0 0 0 .425 2.075 3.446 3.446 0 0 0-1.535.68 8.74 8.74 0 0 0-3.089 6.184 3.53 3.53 0 0 0 .455 1.833 2.579 2.579 0 0 0 1.117.989c-.382 1.2-.661 1.978-.856 2.834a16.322 16.322 0 0 0-.316 3.659v.018a4.577 4.577 0 0 0 1.79 3.611 9.1 9.1 0 0 0 3.113 1.578 25.954 25.954 0 0 0-.2 2.84 7.245 7.245 0 0 0 1.853 5.335 6.987 6.987 0 0 0 4.865 2.175 5.173 5.173 0 0 0 3.617-1.444 29.762 29.762 0 0 0 1.456 3.059 5.958 5.958 0 0 0 3.2 2.8 5.035 5.035 0 0 0 1.651.273 4.44 4.44 0 0 0 4.339-3.131c1.511 1.881 3.319 3 5.049 3.016a3.539 3.539 0 0 0 2.773-1.335 6.716 6.716 0 0 0 1.323-2.98 7.525 7.525 0 0 0 5.225 2.2 4.643 4.643 0 0 0 2.925-.91 3.579 3.579 0 0 0 1.287-2.913 6 6 0 0 0-.134-1.226 3.748 3.748 0 0 0 1.717.443 4.394 4.394 0 0 0 3.235-1.6 5.334 5.334 0 0 0 1.341-3.411 3.822 3.822 0 0 0-.922-2.525 2.639 2.639 0 0 0 1.026-.419 3.838 3.838 0 0 0 1.384-1.881 7.129 7.129 0 0 0 .443-2.525 6.617 6.617 0 0 0-.4-2.391 5.357 5.357 0 0 0-.322-.68 2.416 2.416 0 0 0 1.723-.831 3.244 3.244 0 0 0 .74-2.173v-.046a3.424 3.424 0 0 0-.57-1.833" data-name="Path 611411"/><path fill="url(#a)" d="M66.663 33.967a6.612 6.612 0 0 0-2.136-1.984 9.087 9.087 0 0 0-1.365-.7 6.671 6.671 0 0 0 1.22-1.554 5.917 5.917 0 0 0 .844-2.864 2.743 2.743 0 0 0-.722-1.978 3.008 3.008 0 0 0-2-.8 14.51 14.51 0 0 0-1.026-5.5 6.622 6.622 0 0 0-1.897-2.585 5.184 5.184 0 0 0-2.452-1.032 6.723 6.723 0 0 1-.334 1.062 4.048 4.048 0 0 1 2.112.819 6.562 6.562 0 0 1 2.043 3.528 15.594 15.594 0 0 1 .473 3.841c0 .134 0 .255-.006.376l-.012.589.583-.024h.2a2.045 2.045 0 0 1 1.541.492 1.678 1.678 0 0 1 .419 1.22 4.987 4.987 0 0 1-.7 2.324 5.1 5.1 0 0 1-1.676 1.805l-1.111.655 1.244.34a8.228 8.228 0 0 1 2.745 1.405 4.749 4.749 0 0 1 1.086 1.159 2.538 2.538 0 0 1 .425 1.3v.041a2.282 2.282 0 0 1-.5 1.511 1.44 1.44 0 0 1-1.08.51 1.775 1.775 0 0 1-.868-.249l-.589.916a2.824 2.824 0 0 1 .953 1.341 5.8 5.8 0 0 1 .346 2.039 5.707 5.707 0 0 1-.655 2.755 2.344 2.344 0 0 1-.734.825 1.7 1.7 0 0 1-.935.291 2.362 2.362 0 0 1-.825-.164l-.443.989a2.868 2.868 0 0 1 1.663 2.646 4.336 4.336 0 0 1-1.092 2.749 3.358 3.358 0 0 1-2.476 1.256 3.1 3.1 0 0 1-2.124-.916l-1.614-1.469.728 2.057a6.273 6.273 0 0 1 .419 2.112 2.56 2.56 0 0 1-.91 2.13 3.642 3.642 0 0 1-2.3.692 6.361 6.361 0 0 1-5.043-2.537l-.8-1.159-.188 1.4a6.663 6.663 0 0 1-1.274 3.435 2.537 2.537 0 0 1-2.015.971c-1.444.018-3.332-1.171-4.824-3.386l-.819-1.2-.17 1.444a3.684 3.684 0 0 1-1.238 2.44 3.612 3.612 0 0 1-2.336.837 3.987 3.987 0 0 1-1.317-.231 5 5 0 0 1-2.682-2.361c-.643-1.086-1.1-2.385-1.693-3.6l-.376-.774-.534.661a4.234 4.234 0 0 1-3.332 1.6 5.981 5.981 0 0 1-4.151-1.869 6.252 6.252 0 0 1-1.56-4.63 27.391 27.391 0 0 1 .237-3.1l.055-.461-.455-.127a8.581 8.581 0 0 1-3.113-1.505 3.543 3.543 0 0 1-1.42-2.84v-.012a14.9 14.9 0 0 1 .285-3.447c.194-.856.5-1.693.965-3.156l.164-.528-.534-.158a1.583 1.583 0 0 1-.971-.716 2.561 2.561 0 0 1-.316-1.317 7.721 7.721 0 0 1 1.365-3.932 6 6 0 0 1 1.326-1.463 2.154 2.154 0 0 1 1.274-.516l.255.03 1.171.261-.57-1.056a4.813 4.813 0 0 1-.631-2.276 5.081 5.081 0 0 1 1.96-3.787 6.019 6.019 0 0 1 3.55-1.523 1.342 1.342 0 0 1 1.062.364l.522.595.067-.121a6.637 6.637 0 0 1-1.578-1.918c-.024 0-.049-.012-.073-.012a7.058 7.058 0 0 0-4.254 1.784 6.142 6.142 0 0 0-2.342 4.618 5.6 5.6 0 0 0 .388 2 3.605 3.605 0 0 0-1.463.692 8.139 8.139 0 0 0-2.2 2.785 8.019 8.019 0 0 0-.922 3.471 3.6 3.6 0 0 0 .467 1.881 2.651 2.651 0 0 0 1.074.989c-.364 1.153-.643 1.918-.831 2.761a16.52 16.52 0 0 0-.316 3.671v.024a4.667 4.667 0 0 0 1.814 3.678 9.051 9.051 0 0 0 3.077 1.578 24.756 24.756 0 0 0-.194 2.779 7.332 7.332 0 0 0 1.882 5.391 7.064 7.064 0 0 0 4.922 2.2 5.24 5.24 0 0 0 3.578-1.393 26.319 26.319 0 0 0 1.414 2.968 6.037 6.037 0 0 0 3.253 2.834 5.223 5.223 0 0 0 1.675.285 4.669 4.669 0 0 0 3.04-1.1 4.526 4.526 0 0 0 1.317-1.96c1.5 1.827 3.289 2.913 5.025 2.931a3.648 3.648 0 0 0 2.846-1.359 6.8 6.8 0 0 0 1.317-2.858 7.586 7.586 0 0 0 5.158 2.118 4.743 4.743 0 0 0 2.986-.928 3.7 3.7 0 0 0 1.327-2.981 6.093 6.093 0 0 0-.1-1.062 3.826 3.826 0 0 0 1.6.37 4.47 4.47 0 0 0 3.3-1.632 5.373 5.373 0 0 0 1.359-3.465 3.871 3.871 0 0 0-.844-2.47 2.752 2.752 0 0 0 .9-.394 3.93 3.93 0 0 0 1.414-1.93 7.037 7.037 0 0 0 .455-2.555 6.678 6.678 0 0 0-.419-2.421 4.317 4.317 0 0 0-.255-.57 2.515 2.515 0 0 0 1.645-.856 3.329 3.329 0 0 0 .759-2.227v-.036a3.5 3.5 0 0 0-.589-1.887" data-name="Path 611412"/><path fill="url(#a)" d="M52.511 19.632v8.925a12.346 12.346 0 1 1-24.693 0V19.51a4.518 4.518 0 0 1-1.092-.3v9.347a13.436 13.436 0 0 0 26.871 0v-9.119a2.887 2.887 0 0 1-1.086.2" data-name="Path 611413"/><path fill="url(#a)" d="M62.694 31.861c-.152-2.342-1.28-4.909-2.027-6.955a24.632 24.632 0 0 0-2.436-4.384 31.011 31.011 0 0 1-2-3.417 6.964 6.964 0 0 1-.734.977c.51.977 1.153 2 1.808 3.028a23.933 23.933 0 0 1 2.336 4.169c.771 2.082 1.845 4.6 1.96 6.651 0 .115.006.218.006.316a1.611 1.611 0 0 1-.152.844c-.073.085-.061.079-.188.1a1.832 1.832 0 0 1-.674-.218 12.166 12.166 0 0 1-2.772-2.38 43.065 43.065 0 0 1-4.77-7.525v2.276a35.836 35.836 0 0 0 3.957 5.979 17 17 0 0 0 1.942 1.845 8.511 8.511 0 0 0 1.141.765 2.69 2.69 0 0 0 1.177.346 1.32 1.32 0 0 0 1.1-.583 2.6 2.6 0 0 0 .328-1.444c0-.121 0-.249-.012-.376" data-name="Path 611414"/><path fill="url(#a)" d="M22.059 32.765a6.554 6.554 0 0 1-1.2 1.038 1.613 1.613 0 0 1-.765.291.444.444 0 0 1-.261-.079 1.248 1.248 0 0 1-.37-.668 5.852 5.852 0 0 1-.182-1.578v-.14a17.96 17.96 0 0 1 2.282-7.367 31.64 31.64 0 0 1 3.835-5.8 6.591 6.591 0 0 1-.831-.71 32.858 32.858 0 0 0-3.975 6.008 19.033 19.033 0 0 0-2.4 7.859v.146a5.67 5.67 0 0 0 .4 2.367 1.98 1.98 0 0 0 .595.753 1.493 1.493 0 0 0 .9.285 2.61 2.61 0 0 0 1.341-.455 7.207 7.207 0 0 0 1.42-1.22 31.712 31.712 0 0 0 3.3-4.733c.376-.619.752-1.244 1.111-1.833v-2.084c-.631 1-1.323 2.179-2.039 3.344a30.32 30.32 0 0 1-3.168 4.557" data-name="Path 611415"/><path fill="url(#a)" d="m55.454 10.439.425-.152a11.153 11.153 0 0 0-2.731-4.042 9.378 9.378 0 0 0-3.957-2.433 9.746 9.746 0 0 0-2.446-.3 6.414 6.414 0 0 0-2.233.34 4.662 4.662 0 0 0-1.123.6 1.481 1.481 0 0 1-.206.127.567.567 0 0 1-.225.03 2.979 2.979 0 0 1-.564-.073 2.84 2.84 0 0 1-.925-.439 5.433 5.433 0 0 0-1.156-.642 11.008 11.008 0 0 0-3.568-.516c-.243 0-.492.006-.74.018l.018.455.3-.334-.036-.03v-.007a5 5 0 0 0-3.141-1.426 2.91 2.91 0 0 0-1.677.528 4.733 4.733 0 0 0-1.426 1.669 6.35 6.35 0 0 0-.431.989l.437.134.079-.449a10.315 10.315 0 0 0-1.875-.188 5.583 5.583 0 0 0-2.652.589 4.376 4.376 0 0 0-2.039 2.4 7.9 7.9 0 0 0-.449 2.731 9.653 9.653 0 0 0 .152 1.784l.449-.091-.358-.279a4.3 4.3 0 0 0-.928 2.658 5.906 5.906 0 0 0 1.941 4.11 6.2 6.2 0 0 0 4.084 1.833 3.772 3.772 0 0 0 2.81-1.22l-.334-.309-.443.1a3.519 3.519 0 0 0 2.063 2.4 8.024 8.024 0 0 0 3.4.655 12.063 12.063 0 0 0 3.01-.376 6.967 6.967 0 0 0 2.312-.983 4.069 4.069 0 0 0 .798-.745c.073-.085.115-.146.115-.146l-.14-.146.1.176.042-.03-.14-.146.1.176-.152-.285v.328l.152-.042-.152-.285v.061l-.079.249.079.018v-.261l-.079.249.03-.1-.042.1h.006l.03-.1-.042.1a2.4 2.4 0 0 1 .261.17c.164.115.388.273.7.485a9.491 9.491 0 0 1 1.129 1.032 3.48 3.48 0 0 0 1.56.965 2.218 2.218 0 0 0 .534.061 5.739 5.739 0 0 0 3-1.117 5.112 5.112 0 0 0 1.2-1.141 2.48 2.48 0 0 0 .534-1.432v-.109l-.461.03-.364.267a3.132 3.132 0 0 0 2.579 1.436 4.853 4.853 0 0 0 3.562-2.057 7.083 7.083 0 0 0 1.6-4.254 4.249 4.249 0 0 0-2.039-3.726l-.243.382.425-.152-.425.152-.243.388a3.347 3.347 0 0 1 1.614 2.955 6.226 6.226 0 0 1-1.4 3.69 4.012 4.012 0 0 1-2.851 1.712 2.26 2.26 0 0 1-1.845-1.062l-.91-1.232.091 1.535v.055a1.543 1.543 0 0 1-.346.9 4.869 4.869 0 0 1-1.626 1.323 4.249 4.249 0 0 1-1.845.564 1.236 1.236 0 0 1-.319-.036h-.006a2.671 2.671 0 0 1-1.135-.74 9.678 9.678 0 0 0-1.25-1.123 39.45 39.45 0 0 1-.783-.546 4.188 4.188 0 0 0-.249-.158.791.791 0 0 0-.346-.091.636.636 0 0 0-.279.073.837.837 0 0 0-.249.212 3.8 3.8 0 0 1-.243.3 3.2 3.2 0 0 1-.485.419 5.967 5.967 0 0 1-2 .837 11.736 11.736 0 0 1-2.779.346 7.252 7.252 0 0 1-3.016-.564 2.618 2.618 0 0 1-1.566-1.784l-.194-.837-.583.631a2.843 2.843 0 0 1-2.142.928 5.266 5.266 0 0 1-3.453-1.572 5.044 5.044 0 0 1-1.663-3.459 3.433 3.433 0 0 1 .74-2.112l.127-.164-.036-.2v-.03a8.29 8.29 0 0 1-.14-1.578 6.1 6.1 0 0 1 .759-3.162 3.229 3.229 0 0 1 1.25-1.165 4.694 4.694 0 0 1 2.221-.484 9.2 9.2 0 0 1 1.711.17l.4.079.121-.388v-.025a5.67 5.67 0 0 1 .752-1.408 2.8 2.8 0 0 1 .819-.783 1.991 1.991 0 0 1 1.1-.334 4.111 4.111 0 0 1 2.553 1.212l.291-.346-.3.34.03.024.146.127.177-.015c.237-.012.467-.018.7-.012a10.092 10.092 0 0 1 3.271.467 5.285 5.285 0 0 1 .959.546 3.473 3.473 0 0 0 1.25.57 3.584 3.584 0 0 0 .734.085 1.55 1.55 0 0 0 .552-.091 2.666 2.666 0 0 0 .558-.34 3.673 3.673 0 0 1 .759-.388 5.675 5.675 0 0 1 1.917-.279 9.3 9.3 0 0 1 2.215.267 8.635 8.635 0 0 1 3.55 2.209 10.282 10.282 0 0 1 2.506 3.7l.055.146.134.085.24-.387Z" data-name="Path 611416"/><path fill="url(#a)" d="M55.891 10.087a11.442 11.442 0 0 0-2.682-3.908 9.523 9.523 0 0 0-4-2.458 10.15 10.15 0 0 0-2.464-.3 6.67 6.67 0 0 0-2.27.346 5.149 5.149 0 0 0-1.141.613 1.563 1.563 0 0 1-.188.115.352.352 0 0 1-.188.03 2.784 2.784 0 0 1-.546-.073 2.782 2.782 0 0 1-.892-.431 5.261 5.261 0 0 0-1.171-.643 11.181 11.181 0 0 0-3.593-.528c-.182 0-.364.012-.54.012a4.957 4.957 0 0 0-3.07-1.332 3.06 3.06 0 0 0-1.723.54 4.783 4.783 0 0 0-1.456 1.7 5.127 5.127 0 0 0-.273.564 9.705 9.705 0 0 0-1.445-.124 5.645 5.645 0 0 0-2.688.6 4.444 4.444 0 0 0-2.088 2.446 7.981 7.981 0 0 0-.455 2.754 11.017 11.017 0 0 0 .115 1.578 4.355 4.355 0 0 0-.795 2.5 5.967 5.967 0 0 0 1.96 4.175 6.19 6.19 0 0 0 4.151 1.851 3.809 3.809 0 0 0 2.239-.692 3.8 3.8 0 0 0 1.814 1.663 8.239 8.239 0 0 0 3.447.655 12.3 12.3 0 0 0 3.034-.376 6.956 6.956 0 0 0 2.342-1 4.168 4.168 0 0 0 .746-.68c.024.018.042.024.073.049.158.1.37.255.668.455a10.366 10.366 0 0 1 1.116 1.028 3.531 3.531 0 0 0 1.6.994 2.319 2.319 0 0 0 .546.061 5.754 5.754 0 0 0 3.065-1.129 5.294 5.294 0 0 0 1.214-1.165 3.419 3.419 0 0 0 .3-.492 3 3 0 0 0 1.918.716 4.956 4.956 0 0 0 3.635-2.091 7.152 7.152 0 0 0 1.614-4.309 4.344 4.344 0 0 0-1.936-3.7m-.54 7.325a3.9 3.9 0 0 1-2.779 1.684 2.168 2.168 0 0 1-1.772-1.032l-1.092-1.481.115 1.845v.049a1.507 1.507 0 0 1-.34.85 4.9 4.9 0 0 1-1.6 1.3 4.27 4.27 0 0 1-1.808.552 1.4 1.4 0 0 1-.3-.03 2.591 2.591 0 0 1-1.1-.722 11.5 11.5 0 0 0-1.256-1.135c-.37-.249-.607-.419-.783-.54l-.261-.164a.847.847 0 0 0-.388-.109.781.781 0 0 0-.316.079.944.944 0 0 0-.273.237c-.073.091-.134.176-.243.291a3.336 3.336 0 0 1-.473.413 6.159 6.159 0 0 1-1.96.819 11.381 11.381 0 0 1-2.773.346 7.194 7.194 0 0 1-2.98-.558 2.5 2.5 0 0 1-1.511-1.723l-.231-1-.7.752a2.734 2.734 0 0 1-2.082.9 5.167 5.167 0 0 1-3.392-1.554 4.883 4.883 0 0 1-1.618-3.391 3.276 3.276 0 0 1 .716-2.051l.152-.194-.049-.243v-.018a8.472 8.472 0 0 1-.134-1.566 5.99 5.99 0 0 1 .746-3.113 3.194 3.194 0 0 1 1.205-1.129 4.612 4.612 0 0 1 2.185-.473 9.5 9.5 0 0 1 1.693.17l.473.091.14-.461v-.019a5.833 5.833 0 0 1 .734-1.388 3.116 3.116 0 0 1 .8-.771 2.056 2.056 0 0 1 1.05-.316 4.009 4.009 0 0 1 2.489 1.187l.03.024.164.146.218-.012c.237-.012.473-.012.7-.012a9.978 9.978 0 0 1 3.235.467 4.5 4.5 0 0 1 .947.534 3.683 3.683 0 0 0 1.274.589 4.247 4.247 0 0 0 .752.085 1.641 1.641 0 0 0 .589-.1 2.881 2.881 0 0 0 .576-.352 3.657 3.657 0 0 1 .74-.376 5.8 5.8 0 0 1 1.881-.267 9.468 9.468 0 0 1 2.191.261 8.531 8.531 0 0 1 3.514 2.185 10.3 10.3 0 0 1 2.489 3.675l.061.176.158.1a3.223 3.223 0 0 1 1.575 2.877 6.07 6.07 0 0 1-1.384 3.629" data-name="Path 611417"/><path fill="url(#a)" d="M50.011 34.463a4.39 4.39 0 0 0-2.719-.734q-.41 0-.8.018l.061 1.08q.382-.018.746-.018h.194a10.77 10.77 0 0 1-2.828 4.218 7.405 7.405 0 0 1-5 1.772 12.413 12.413 0 0 1-3.307-.492l-.3 1.05a13.5 13.5 0 0 0 3.6.54 8.563 8.563 0 0 0 5.71-2.039 12.072 12.072 0 0 0 3.228-4.891 2.3 2.3 0 0 1 .759.358l.649-.874Z" data-name="Path 611418"/><path fill="url(#a)" d="M32.624 22.952a2.215 2.215 0 1 0 2.215 2.215 2.212 2.212 0 0 0-2.215-2.215" data-name="Path 611419"/><path fill="url(#a)" d="M45.793 22.952a2.215 2.215 0 1 0 2.215 2.215 2.211 2.211 0 0 0-2.215-2.215" data-name="Path 611420"/><path fill="url(#a)" d="M67.798 32.491a4.748 4.748 0 0 0-1.088-1.159 8.471 8.471 0 0 0-2.5-1.317v-.173a8.4 8.4 0 0 0-.14-1.074 5.262 5.262 0 0 0 1.426-1.639 4.958 4.958 0 0 0 .7-2.324 1.678 1.678 0 0 0-.419-1.22 2.035 2.035 0 0 0-1.541-.492h-.2l-.583.03.012-.589c.006-.121.006-.243.006-.376a15.344 15.344 0 0 0-.479-3.841 6.485 6.485 0 0 0-2.039-3.52 3.979 3.979 0 0 0-2.118-.819 7.121 7.121 0 0 1-1.062 1.766 5.6 5.6 0 0 1-1.808 1.487l6.098 13.361c.17.322-1.208 3.028-1.013 3.386l-7.282-7.622c-2.877 11.008-6.766 14.9-13.885 14.9s-12.192-4.899-12.192-12.014l-.17-2.876c-1.511 2.458-1.554 3.186-3.01 4.727-4.272 5.437-5.334 2.81-5.292-.492.049-4.127 4.849-10.99 7.731-14.431l-.449-.516a1.321 1.321 0 0 0-1.062-.364 6.019 6.019 0 0 0-3.55 1.523 5.1 5.1 0 0 0-1.96 3.787 4.726 4.726 0 0 0 .631 2.276l.564 1.056-1.171-.261-.255-.03a2.236 2.236 0 0 0-1.274.516 6.239 6.239 0 0 0-1.329 1.456 7.665 7.665 0 0 0-1.365 3.929 2.537 2.537 0 0 0 .316 1.311 1.583 1.583 0 0 0 .971.716l.534.158-.164.528c-.461 1.463-.771 2.3-.965 3.156a15.214 15.214 0 0 0-.285 3.447v.012a3.549 3.549 0 0 0 1.426 2.84 8.68 8.68 0 0 0 3.113 1.5l.455.127-.055.467a26.052 26.052 0 0 0-.237 3.1 6.252 6.252 0 0 0 1.56 4.63 6 6 0 0 0 4.151 1.869 4.189 4.189 0 0 0 3.332-1.6l.534-.661.376.771c.589 1.22 1.05 2.518 1.693 3.6a4.99 4.99 0 0 0 2.676 2.361 3.987 3.987 0 0 0 1.317.231 3.579 3.579 0 0 0 2.332-.824 3.692 3.692 0 0 0 1.232-2.44l.17-1.444.819 1.2c1.493 2.215 3.38 3.4 4.824 3.386a2.583 2.583 0 0 0 2.015-.971 6.663 6.663 0 0 0 1.274-3.435l.188-1.4.8 1.159a6.349 6.349 0 0 0 5.043 2.543 3.644 3.644 0 0 0 2.3-.7 2.543 2.543 0 0 0 .91-2.13 6.327 6.327 0 0 0-.418-2.107l-.728-2.057 1.614 1.469a3.1 3.1 0 0 0 2.124.916 3.358 3.358 0 0 0 2.476-1.256 4.3 4.3 0 0 0 1.092-2.749 2.862 2.862 0 0 0-1.663-2.646l.443-.989a2.362 2.362 0 0 0 .825.164 1.611 1.611 0 0 0 .935-.291 2.4 2.4 0 0 0 .734-.825 5.689 5.689 0 0 0 .655-2.755 5.775 5.775 0 0 0-.346-2.039 2.854 2.854 0 0 0-.953-1.341l.589-.916a1.775 1.775 0 0 0 .868.249 1.42 1.42 0 0 0 1.08-.51 2.283 2.283 0 0 0 .5-1.511v-.03a2.6 2.6 0 0 0-.425-1.311ZM26.993 45.742a5.854 5.854 0 0 1-3.289-2.676 6.229 6.229 0 0 1-.844-4.145 3.933 3.933 0 0 1 .9-1.948 3.336 3.336 0 0 1 1.784-1.044 3.721 3.721 0 0 0-1.845 3.089 6.466 6.466 0 0 0 .941 3.5 5.841 5.841 0 0 0 2.622 2.433 5.3 5.3 0 0 0 3.726.067 4.525 4.525 0 0 1-4.005.722Zm29.2 1.372a4.252 4.252 0 0 1-5.886.37 2.629 2.629 0 0 1-.74-2.9 2.852 2.852 0 0 0 1.268 2.239 4.051 4.051 0 0 0 2.421.577 3.979 3.979 0 0 0 2.33-.886 4.7 4.7 0 0 0 1.4-2.306 3.571 3.571 0 0 1-.8 2.907Z" data-name="Path 611421" opacity=".53"/><path fill="url(#a)" d="M93.298 65.268a3.643 3.643 0 0 0-1.511-.346c-.752 0-1.153.3-1.153.759s.461.68 1.262 1.086c1.147.583 1.778 1.086 1.778 2.1 0 1.2-.983 2.148-2.622 2.148a6.7 6.7 0 0 1-1.8-.407l.127-1.171a4.068 4.068 0 0 0 1.675.522c.777 0 1.22-.413 1.22-.886 0-.534-.473-.759-1.214-1.165a4.424 4.424 0 0 1-1.28-.856 1.789 1.789 0 0 1-.486-1.244c0-1.1.9-1.942 2.506-1.942a6.413 6.413 0 0 1 1.614.328l-.121 1.074Z" data-name="Path 611422"/><path fill="url(#a)" d="m103.542 64.018 2.64 6.845h-1.45l-.57-1.62h-2.98l-.595 1.62h-1.342l2.664-6.845h1.626Zm-1.984 4.224h2.247l-1.1-3.077-1.141 3.077Z" data-name="Path 611423"/><path fill="url(#a)" d="M113.257 64.018v5.8h2.747v1.044h-4.1v-6.844Z" data-name="Path 611424"/><path fill="url(#a)" d="M126.183 64.018v.983h-2.828v1.815h2.682v1.007h-2.682v2h2.931v1.038h-4.284v-6.843Z" data-name="Path 611425"/><path fill="url(#a)" d="M136.621 65.268a3.643 3.643 0 0 0-1.508-.342c-.753 0-1.153.3-1.153.759s.461.68 1.262 1.086c1.147.583 1.778 1.086 1.778 2.1 0 1.2-.983 2.148-2.622 2.148a6.7 6.7 0 0 1-1.8-.407l.127-1.171a4.068 4.068 0 0 0 1.675.522c.777 0 1.22-.413 1.22-.886 0-.534-.473-.759-1.214-1.165a4.425 4.425 0 0 1-1.28-.856 1.789 1.789 0 0 1-.485-1.244c0-1.1.9-1.942 2.506-1.942a6.413 6.413 0 0 1 1.614.328l-.121 1.074Z" data-name="Path 611426"/><path fill="url(#a)" d="m154.911 64.018 2.64 6.845h-1.45l-.57-1.62h-2.98l-.595 1.62h-1.341l2.664-6.845h1.626Zm-1.984 4.224h2.251l-1.1-3.077Z" data-name="Path 611427"/><path fill="url(#a)" d="m164.973 64.018 2.512 4.782a8.506 8.506 0 0 1 .455 1.244 9.783 9.783 0 0 1-.17-1.566v-4.46h1.226v6.845h-1.672l-2.591-4.891a5.558 5.558 0 0 1-.407-1.183 16.138 16.138 0 0 1 .17 1.638v4.436h-1.222v-6.845h1.693Z" data-name="Path 611428"/><path fill="url(#a)" d="M177.602 64.018a4.862 4.862 0 0 1 2.506.492 3.211 3.211 0 0 1 1.469 2.919 3.167 3.167 0 0 1-1.487 2.907 4.881 4.881 0 0 1-2.591.522h-1.851v-6.846h1.96Zm-.6 5.789h.777a2.388 2.388 0 1 0-.036-4.776h-.74v4.77Z" data-name="Path 611429"/><path fill="url(#a)" d="M197.27 64.018v5.8h2.737v1.044h-4.09v-6.844Z" data-name="Path 611430"/><path fill="url(#a)" d="M210.196 64.018v.983h-2.834v1.815h2.682v1.007h-2.682v2h2.931v1.038h-4.278v-6.843Z" data-name="Path 611431"/><path fill="url(#a)" d="M221.083 64.018v1.056h-1.827v5.789h-1.347v-5.789h-1.808v-1.056Z" data-name="Path 611432"/><path fill="url(#a)" d="M231.624 64.018v1.056h-1.827v5.789h-1.347v-5.789h-1.808v-1.056Z" data-name="Path 611433"/><path fill="url(#a)" d="M237.608 64.018h1.353v6.845h-1.353z" data-name="Rectangle 14652"/><path fill="url(#a)" d="m247.311 64.018 2.512 4.782a8.505 8.505 0 0 1 .455 1.244 10.567 10.567 0 0 1-.17-1.566v-4.46h1.226v6.845h-1.669l-2.591-4.891a5.564 5.564 0 0 1-.407-1.183 16.108 16.108 0 0 1 .17 1.638v4.436h-1.225v-6.845h1.693Z" data-name="Path 611434"/><path fill="url(#a)" d="M263.448 65.31a5.465 5.465 0 0 0-1.754-.413 2.475 2.475 0 0 0-2.585 2.585 2.322 2.322 0 0 0 2.488 2.464 2.991 2.991 0 0 0 .886-.206v-1.748h-1.262v-.965h2.537v3.532a6.86 6.86 0 0 1-2.2.443c-2.427 0-3.835-1.4-3.835-3.532s1.432-3.6 3.926-3.6a10.078 10.078 0 0 1 1.942.364l-.14 1.074Z" data-name="Path 611435"/><path fill="url(#a)" d="M274.274 65.268a3.643 3.643 0 0 0-1.511-.346c-.746 0-1.153.3-1.153.759s.461.68 1.262 1.086c1.147.583 1.778 1.086 1.778 2.1 0 1.2-.983 2.148-2.622 2.148a6.7 6.7 0 0 1-1.8-.407l.127-1.171a4.068 4.068 0 0 0 1.675.522c.777 0 1.226-.413 1.226-.886 0-.534-.473-.759-1.214-1.165a4.424 4.424 0 0 1-1.28-.856 1.789 1.789 0 0 1-.486-1.244c0-1.1.9-1.942 2.506-1.942a6.515 6.515 0 0 1 1.62.328l-.121 1.074Z" data-name="Path 611436"/><path fill="url(#a)" d="M206.009 29.834c-.813-4.661-3.052-5.638-4.794-5.638-2.336 0-4.521 2.148-6.876 6.754-1.736 3.392-2.761 5.243-3.368 6.257-.874-2.112-1.553-6.251-2.027-11.773-.261-4.824-.431-9.461-3.544-9.461-.789 0-1.6.455-2.864 1.632l-.152.164a44.971 44.971 0 0 0-8.1 15.554c-1.978 7.713-2.968 12.647-3.04 15.117v.85c.006 3.526 2.828 2.3 2.828 2.3 1.954-.862 4.454-16.015 5.8-19.881a37.975 37.975 0 0 1 3.963-7.592l.127 1.875c.765 12.022 3.034 17.617 7.149 17.617 0 0 3.7.34 7.64-9.819l.073-.164a10.152 10.152 0 0 1 1.93-3.259 43.393 43.393 0 0 1 1.008 7.686c.431 10.219.868 11.257 2.549 11.257h.637c1.875 0 2.057-2.075 2.057-7.574a94.3 94.3 0 0 0-1.013-11.931" data-name="Path 611437"/><path fill="url(#a)" d="M222.776 33.844c.018-.055.036-.1.055-.164 0 0 .916-2.622-2.179-2.622a7.831 7.831 0 0 0-2.379.407l-.206.085c-10.553 4.369-9.321 14.358-9.321 14.358 0 6.178 10.05 5.71 10.05 5.71s14.51-.789 14.51-9.376c0 0 0-8.4-10.523-8.4m-9.54 9.867s.54-5.68 6.378-5.68c0 0 8.878.091 8.878 4.1 0 2.154-2.227 4.248-9.7 4.685 0 0-6.348 0-5.547-3.095" data-name="Path 611438"/><path fill="url(#a)" d="M111.206 19.776h-9.722c-2.707 0-5.092.1-7.112.3.121 2.021.243 5.8.364 11.433l3.6-.085h.006c5.255 0 8 .243 9.382.783 1.044.394 2.033 1.056 2.033 2.106a2.333 2.333 0 0 1-2.476 2.148h-.061c-.073.006-.146.012-.206.012l-7.04-.358h-2.923l-2.173.073v9.971l3.926-.085h2.555c6.754-.194 15.96.85 15.96 3.362v.358c0 1.918-2.458 1.918-4.436 1.918h-.1c-7.155-.473-12.295-.716-15.262-.716l-4.545.146-2.185.212h-.831a2.217 2.217 0 0 1-2.185-1.408l-.091-.243v-.759c0-1.147.983-1.645 2.142-1.96-.079-1.1-.115-2.512-.115-4.272v-6.568a2.089 2.089 0 0 1-1.912-1.968 2.048 2.048 0 0 1 1.8-1.954v-.061l-.121-5.528-.194-5.729-.947-.061c-1.626-.352-1.972-1.22-1.972-1.881 0-1.378 1.28-2.082 2.876-2.561v-.34c.261-3.447 3.077-2.227 3.077-2.227a2.843 2.843 0 0 1 1.384 1.723 85.452 85.452 0 0 1 9.1-.437c6.651 0 9.321.455 9.849 1.693 0 0 1.293 2.622-1.456 2.968" data-name="Path 611439" opacity=".53"/><path fill="url(#a)" d="M142.046 29.142c-2.992.753-.819 3.8-.819 3.8.734.813.279 2.876-.273 4.46-2.276 4.29-4.545 6.56-6.572 6.56a1.134 1.134 0 0 1-1.062-.947c-.1-1.778-.218-6.56-2.792-6.56a2.1 2.1 0 0 0-2.054 1.864l-.091.352c-1.244 4.837-2.961 7.331-5.1 7.41l-.109-.018c-.692-1.147-1.4-3.544-1.4-8.538v-1.829a2.457 2.457 0 0 0-1.232-2.336l-.322-.176s-3.459-1.645-3.332 5.759v.091l.237 3.58v.085c.285 2.227 1.141 9 5.68 9h.595c2.6 0 4.861-1.378 6.718-4.108a5.582 5.582 0 0 0 4.254 2.142c1.924 0 3.957-.9 6.214-2.773l.115-.109c3.878-3.993 5.844-8.156 5.844-12.374v-1.069c0-5.632-4.509-4.272-4.509-4.272" data-name="Path 611440" opacity=".53"/><path fill="url(#a)" d="M268.745 41.236s7.6-1.59 7.6-7.683c0 0 .152-5.862-8.168-5.862-3.2 0-6.7 1.469-10.4 4.375l-.073.061c-3.5 3.156-5.28 6.554-5.28 10.1v.176c0 2.094.261 7.6 13.9 9.188l.953.012h.012c.127 0 .273.006.431 0 1.147-.042 2.506-.91 2.506-1.972a2 2 0 0 0-2.082-1.918h-.018s-11.354-.71-11.354-5.492a5.194 5.194 0 0 1 .182-1.311c-.055 2.221 7.956 1.092 11.779.322m-10.529-3.131c.267-.443 2.282-6.141 9.91-6.141 5.019 0 3.586 2.67 3.586 2.67-.109.3-.613 1.1-2.961 2.106-1.845.643-10.48 1.347-10.535 1.365" data-name="Path 611441"/><path fill="url(#a)" d="M163.383 41.127s7.6-1.59 7.6-7.683c0 0 .152-5.862-8.162-5.862-3.2 0-6.7 1.469-10.4 4.375l-.073.061c-3.5 3.156-5.28 6.554-5.28 10.1v.176c0 2.094.261 7.6 13.9 9.188l.953.012h.443c1.147-.042 2.506-.91 2.506-1.972a2 2 0 0 0-2.082-1.918h-.018s-11.354-.71-11.354-5.492a5.193 5.193 0 0 1 .182-1.311c-.055 2.221 7.956 1.086 11.773.322m-10.529-3.131c.267-.443 2.282-6.141 9.91-6.141 5.019 0 3.586 2.67 3.586 2.67-.109.3-.649 1.359-2.961 2.106-1.845.643-10.48 1.347-10.541 1.365" data-name="Path 611442" opacity=".53"/><path fill="url(#a)" d="M241.971 46.049c-2.791-2.8-3.508-16.361-6.008-16.361-2.67 0-2.227 2.919-2.227 2.919a59.05 59.05 0 0 0 1.875 11.148l.03.1c1.954 5.413 4.042 7.938 6.572 7.938h.121c1.493 0 2.628-1.038 3.671-2.931 8.884-16.039 8.824-19.377 5.7-19.662-2.361-.346-7.9 13.144-7.9 13.144Z" data-name="Path 611443"/></svg>