<svg xmlns="http://www.w3.org/2000/svg" width="476.085" height="55.131"><defs><linearGradient id="a" x1="0%" x2="0%" y1="0%" y2="100%"><stop offset="0%" stop-color="#FF7702"/><stop offset="100%" stop-color="#FE0000"/></linearGradient></defs><g fill="url(#a)" data-name="Group 96106" transform="translate(2560 20257.47)"><path d="M-2334.688-20241.773h2.68v14.931l14.357-14.931h3.637l-10.72 10.911 11.1 13.974h-3.446l-9.571-12.06-5.36 5.36v6.7h-2.677Z" data-name="Path 655489"/><path d="M-2309.993-20242.349h3.063v3.063h-3.063Zm.191 7.083h2.68v18.377h-2.68Z" data-name="Path 655490"/><path d="M-2301.57-20235.265h2.68v3.254a7 7 0 0 1 6.32-3.637c4.4 0 7.083 3.063 7.083 7.274v11.486h-2.683v-10.72c0-3.446-1.914-5.551-5.169-5.551a5.378 5.378 0 0 0-5.551 5.743v10.528h-2.68v-18.377Z" data-name="Path 655491"/><path d="m-2280.896-20213.633 1.149-2.106a11.617 11.617 0 0 0 7.083 2.3c4.02 0 6.7-2.3 6.7-6.509v-2.108a8.662 8.662 0 0 1-7.274 3.829 8.452 8.452 0 0 1-8.614-8.614 8.649 8.649 0 0 1 15.7-4.977v-3.255h2.68v15.123a8.7 8.7 0 0 1-2.3 6.509c-1.723 1.723-4.02 2.489-7.083 2.489a16.093 16.093 0 0 1-8.04-2.68m15.123-13.4a6.454 6.454 0 0 0-6.7-6.317 6.091 6.091 0 0 0-6.317 6.126 6.251 6.251 0 0 0 6.317 6.317 6.183 6.183 0 0 0 6.7-6.126" data-name="Path 655492"/><path d="m-2259.456-20219.184 1.34-1.914a10.278 10.278 0 0 0 6.317 2.3c2.106 0 3.829-1.149 3.829-2.871 0-1.914-2.106-2.489-4.594-3.254-2.871-.766-6.126-1.723-6.126-5.169 0-3.254 2.68-5.169 6.317-5.169a12.063 12.063 0 0 1 6.7 2.106l-1.34 2.106a9.847 9.847 0 0 0-5.36-1.723c-2.106 0-3.637 1.149-3.637 2.68 0 1.723 2.3 2.489 4.786 3.254 2.871.766 5.934 1.914 5.934 5.169 0 3.446-2.871 5.551-6.509 5.551a17.954 17.954 0 0 1-7.657-3.066" data-name="Path 655493"/><path d="M-2239.547-20221.673v-11.103h-2.489v-2.489h2.489v-5.551h2.68v5.551h5.743v2.489h-5.743v10.72c0 2.3 1.149 3.063 3.063 3.063a6.756 6.756 0 0 0 2.68-.574v2.3a5.866 5.866 0 0 1-3.254.766c-3.063 0-5.169-1.531-5.169-5.169" data-name="Path 655494"/><path d="M-2228.253-20226.077a9.572 9.572 0 0 1 19.143 0 9.477 9.477 0 0 1-9.571 9.571 9.362 9.362 0 0 1-9.571-9.571m16.272 0a6.954 6.954 0 0 0-6.893-7.271c-4.02 0-6.7 3.254-6.7 7.083a6.753 6.753 0 0 0 6.7 7.083c4.211.191 6.891-2.871 6.891-6.891" data-name="Path 655495"/><path d="M-2205.664-20235.265h2.68v3.254a7 7 0 0 1 6.32-3.637c4.4 0 7.083 3.063 7.083 7.274v11.486h-2.683v-10.72c0-3.446-1.914-5.551-5.169-5.551a5.378 5.378 0 0 0-5.551 5.743v10.528h-2.68v-18.377Z" data-name="Path 655496"/><path d="m-2177.716-20220.525 1.723-2.106a12.322 12.322 0 0 0 8.614 3.446c3.254 0 5.551-1.723 5.551-4.211 0-2.3-1.149-3.637-6.509-4.786-5.743-1.34-8.423-3.063-8.423-7.083 0-3.829 3.446-6.7 8.231-6.7a13.008 13.008 0 0 1 8.806 3.063l-1.723 2.106a10.613 10.613 0 0 0-7.083-2.68c-3.254 0-5.36 1.723-5.36 4.02 0 2.3 1.34 3.637 6.7 4.786 5.551 1.149 8.04 3.254 8.04 7.083 0 4.211-3.637 7.083-8.423 7.083a14.167 14.167 0 0 1-10.144-4.021" data-name="Path 655497"/><path d="M-2155.319-20235.265h2.68v3.063a6.822 6.822 0 0 1 5.934-3.446 6.094 6.094 0 0 1 5.934 3.637 7.181 7.181 0 0 1 6.509-3.637c4.211 0 6.891 2.871 6.891 7.466v11.294h-2.68v-10.72c0-3.637-1.723-5.551-4.786-5.551-2.68 0-5.169 2.106-5.169 5.743v10.528h-2.68v-10.72c0-3.446-1.723-5.551-4.786-5.551-2.871 0-5.169 2.489-5.169 5.743v10.528h-2.678v-18.377Z" data-name="Path 655498"/><path d="M-2122.392-20242.347h3.063v3.063h-3.063Zm.191 7.083h2.68v18.377h-2.68Z" data-name="Path 655499"/><path d="M-2112.438-20221.673v-11.103h-2.489v-2.489h2.489v-5.551h2.68v5.551h5.743v2.489h-5.743v10.72c0 2.3 1.149 3.063 3.063 3.063a6.756 6.756 0 0 0 2.68-.574v2.3a5.866 5.866 0 0 1-3.254.766c-2.871 0-5.169-1.531-5.169-5.169" data-name="Path 655500"/><path d="M-2099.995-20242.73h2.68v10.72a7 7 0 0 1 6.317-3.637c4.4 0 7.083 3.063 7.083 7.274v11.486h-2.68v-10.72c0-3.446-1.914-5.551-5.169-5.551a5.378 5.378 0 0 0-5.551 5.743v10.528h-2.68Z" data-name="Path 655501"/><path d="m-2505.06-20257.471-27.566 27.566 27.566 27.566Z" data-name="Path 655502" opacity=".626"/><path d="M-2560-20257.471v55.132l27.374-27.566Z" data-name="Path 655503" opacity=".629"/><path d="M-2560-20202.339h54.94l-27.566-27.566Z" data-name="Path 655504"/><path d="M-2485.917-20242.73h4.786l7.849 12.06 7.848-12.06h4.786v25.652h-4.595v-18.378l-8.04 12.06h-.191l-8.043-12.06v18.378h-4.4Z" data-name="Path 655505"/><path d="M-2456.437-20229.905a13.4 13.4 0 0 1 26.8 0 13.4 13.4 0 0 1-26.8 0m22.014 0c0-4.977-3.637-9.189-8.614-9.189-5.169 0-8.614 4.02-8.614 9 0 4.977 3.637 9.189 8.614 9.189 5.169 0 8.614-4.02 8.614-9" data-name="Path 655506"/><path d="M-2426.382-20229.905a13.4 13.4 0 0 1 26.8 0 13.4 13.4 0 0 1-26.8 0m22.014 0c0-4.977-3.637-9.189-8.614-9.189-5.169 0-8.614 4.02-8.614 9 0 4.977 3.637 9.189 8.614 9.189a8.668 8.668 0 0 0 8.614-9" data-name="Path 655507"/><path d="M-2395.754-20242.73h11.486a10.935 10.935 0 0 1 7.466 2.489 7.659 7.659 0 0 1 2.106 5.551c0 4.211-2.489 6.7-6.126 7.657l6.891 9.763h-5.36l-6.317-9h-5.551v9h-4.4v-25.46Zm11.1 12.634c3.254 0 5.169-1.723 5.169-4.211 0-2.68-1.914-4.211-5.36-4.211h-6.509v8.614h6.7Z" data-name="Path 655508"/><path d="M-2370.485-20242.73h18.951v4.02h-14.357v6.7h12.826v4.02h-12.826v6.891h14.549v4.02h-19.143Z" data-name="Path 655509"/></g></svg>