<svg xmlns="http://www.w3.org/2000/svg" width="186.416" height="86.951"><defs><linearGradient id="a" x1="0%" x2="0%" y1="0%" y2="100%"><stop offset="0%" stop-color="#FF7702"/><stop offset="100%" stop-color="#FE0000"/></linearGradient></defs><g fill="url(#a)"><path d="M58.968 70.631c-2.767.846-6.287 2.183-12.17 4.093a65.848 65.848 0 0 0 1.555-19.478 32.577 32.577 0 0 1-6.658-1.6c.546 11.57-1.872 23.014-2.641 23.434a58.019 58.019 0 0 1-19.86 2.565A35.719 35.719 0 0 1 .36 73.278L0 80.127c1.8 1.583 10.4 6.816 19.587 6.816 11.046.18 20.367-2.729 29.388-5.747 6.549-2.183 9.993-3.476 9.993-3.476Z"/><path d="M4.939 59.361a11.33 11.33 0 0 0-2.966 3.777 19.018 19.018 0 0 0-1.46 6.753 40.587 40.587 0 0 0 21.917 6.413c-4.912-2.221-12.159-7.226-17.464-16.918"/><path d="M27.124 76.049a61.876 61.876 0 0 0 8.279-1.408c-8.115-1.583-19.767-8.661-26.261-17.513h-.071a10.872 10.872 0 0 0-2.865 1.293c2.783 4.59 8.454 11.859 20.918 17.611m23.86-8.627a28.253 28.253 0 0 0 5.774-7.275 13.005 13.005 0 0 0-5.359-4.06 47.169 47.169 0 0 1-.415 11.335m-.3 2.669c1.686-.546 5.4-1.806 8.284-2.685v-1.506a7.886 7.886 0 0 0-.415-2.412 9.753 9.753 0 0 0-.644-1.539 30.092 30.092 0 0 1-7.226 8.143m-13.223 1.09a9.623 9.623 0 0 0 .327-1.222c.126-.546.224-1.152.311-1.735.1-.7.2-1.413.273-2.123a84.748 84.748 0 0 0 .42-4.939c.049-.849.093-1.714.126-2.576s.044-1.637.049-2.483 0-1.523-.027-2.281a15.759 15.759 0 0 1 .158-5.163 8.814 8.814 0 0 1 1.446-2.865 3.984 3.984 0 0 1 2.7-1.7c3.105-.186 6.642 1 7.433-.546a3.214 3.214 0 0 0 .082-2.892c-.382-.928.655-1.512.655-1.512.813-.682-.158-1.413-.158-1.413 1.7-.5.791-1.5.791-1.5a3.613 3.613 0 0 1-.382-1.566 15.192 15.192 0 0 1 1.637-1.053c.546-.322.77-1.037-.147-1.954a19.531 19.531 0 0 1-3.16-4.088.589.589 0 0 1 .169-.819c.284-.169.355-.2.377-.426a13.533 13.533 0 0 0-2.92-8.857 1.5 1.5 0 0 1 .89-.306 12.825 12.825 0 0 0-4.186-2.952c3.711-2.5 4.4-7.215 4.4-7.215.677-3.389 3.935-5.845 3.935-5.845-8.563-1.1-12.65.644-12.65.644A2.347 2.347 0 0 1 40.384 0c-9.277 1.343-11.46 4.573-11.58 4.7a4.7 4.7 0 0 1-.82-1.633 25.206 25.206 0 0 0-5.528 8.912A5.779 5.779 0 0 1 21.36 11c-2.052 5.359-2.079 8.787-1.965 10.675a4.519 4.519 0 0 1-1.474-.546 28.158 28.158 0 0 0 2.118 9.976 2.641 2.641 0 0 1-1.272-.136c.48 1.173 1 2.33 1.566 3.465.453.9.944 1.785 1.484 2.636a17.857 17.857 0 0 0 1.359 1.894c.153.186.311.371.475.546.317.338.671.622 1 .944a3.924 3.924 0 0 1 .993 2.581c.546 7.095-7.04 10.915-12.416 12.836 10.866 11.463 23.037 15.174 24.226 15.284"/></g><g fill="url(#a)" transform="translate(68.442 16.331)"><path d="M31.893 57.754c3.176 0 4.235-1.806 4.077-6-.939.584-2.663.709-4.12 1.092s-2.729.982-2.729 2.592 1.288 2.314 2.783 2.314m-8.661-10.549a6.265 6.265 0 0 1 3.176-5.457 13.417 13.417 0 0 1 6.473-1.413c4.824 0 9.491 1.091 9.491 6.827v8.907a11.885 11.885 0 0 0 .78 5.212h-6.68a7.91 7.91 0 0 1-.393-1.921 9.2 9.2 0 0 1-6.707 2.51c-3.886 0-6.942-1.959-6.942-6.156 0-6.631 7.22-6.118 11.843-7.062 1.141-.235 1.768-.628 1.768-1.883 0-1.528-1.845-2.118-3.22-2.118-1.839 0-3.018.824-3.335 2.549Zm22.027-6.28h6.467v2.781h.076a7.687 7.687 0 0 1 6.4-3.367c6.784 0 7.335 4.912 7.335 7.881v13.06h-6.669v-9.823c0-2.789.317-5.61-3.329-5.61-2.516 0-3.613 2.117-3.613 4.366v11.1H45.27Zm29.214 9.966c0 2.783 1.021 5.883 4.077 5.883 3.274 0 3.968-3.1 3.968-5.687 0-2.942-1.059-5.648-3.968-5.648-3.056 0-4.077 2.86-4.077 5.457m14.478 10.37h-6.358v-2.336h-.076a6.511 6.511 0 0 1-5.61 2.942c-6.4 0-9.1-5.49-9.1-11.215 0-5.3 2.822-10.315 8.585-10.315a6.811 6.811 0 0 1 5.807 2.778h.082v-9.824h6.669ZM7.297 22.166h5.845c2.314 0 3.924-.824 3.924-3.138 0-2.472-1.73-3.274-3.924-3.274H7.297Zm0-11.139h5.648a2.717 2.717 0 0 0 2.98-2.663c0-2-1.452-2.729-2.98-2.729H7.297ZM-.003.003h13.1c4.83-.076 10.145 1.179 10.145 7.024a6.3 6.3 0 0 1-3.682 5.649 6.653 6.653 0 0 1 4.775 6.625c0 6.669-4.912 8.732-10.915 8.732H0Zm26.39 7.679h6.467v3.569h.082a6.159 6.159 0 0 1 6.118-3.962 7.58 7.58 0 0 1 1.566.153v6.057a9.163 9.163 0 0 0-2.549-.393 4.7 4.7 0 0 0-5.021 4.824v10.079h-6.663Zm16.361 0h6.691v20.357h-6.691Zm6.691-2.576h-6.685v-5.1h6.685Zm16.215 6.86h-4.115v9.278c0 1.637.939 1.954 2.39 1.954.546 0 1.135-.076 1.725-.076v4.907c-1.217.038-2.434.2-3.646.2-5.687 0-7.138-1.637-7.138-7.182v-9.081h-3.373V7.682h3.4V1.499h6.669v6.183h4.115Zm2.084-4.284h6.664v20.357h-6.664Zm6.664-2.549h-6.669V.009h6.669Zm8.437 16.189a2.729 2.729 0 0 0 1.087 2.279 4.186 4.186 0 0 0 2.472.7c1.293 0 3.133-.546 3.133-2.183s-2.074-1.883-3.274-2.183c-4.2-1.059-9.452-1.179-9.452-6.674 0-4.912 5.294-6.232 9.278-6.232 4.475 0 9.141 1.293 9.376 6.587h-6.112a1.915 1.915 0 0 0-.868-1.763 3.9 3.9 0 0 0-2.112-.508c-1.091 0-2.865.115-2.865 1.528 0 1.921 4.47 2.276 7.526 2.942 4.126.824 5.179 3.82 5.179 5.49 0 5.457-5.179 7.258-9.763 7.258-4.824 0-9.769-1.637-9.96-7.3ZM97.694.003h6.675v10.435h.071c1.021-2.074 3.766-3.373 6.2-3.373 6.784 0 7.335 4.939 7.335 7.886v13.06h-6.669v-9.824c0-2.783.311-5.6-3.335-5.6-2.51 0-3.6 2.118-3.6 4.366v11.058h-6.677ZM.005 33.277h7.291v21.726h13.065v6.274H.005Z"/></g></svg>