<svg xmlns="http://www.w3.org/2000/svg" width="142.422" height="59.817" data-name="Layer 2"><defs><linearGradient id="a" x1="0%" x2="0%" y1="0%" y2="100%"><stop offset="0%" stop-color="#FF7702"/><stop offset="100%" stop-color="#FE0000"/></linearGradient></defs><g fill="url(#a)" data-name="Layer 1"><path d="M52.696 0h89.726v14.959H52.696z" data-name="Rectangle 14662"/><path d="M0 0h11.396v14.959H0z" data-name="Rectangle 14663"/><path d="M17.801 0h28.49v14.959h-28.49z" data-name="Rectangle 14664"/><path d="M77.369 37.327a10.025 10.025 0 0 0-3.45-8.172c-2.333-1.853-5.034-2.291-9.035-2.291H52.696v32.52h6.6V32.703h5.83a7.069 7.069 0 0 1 3.62.693 4.143 4.143 0 0 1 1.852 3.931c0 3.379-2.093 4.581-4.821 4.581h-4.4v5.882h2.616l6.872 11.594H78.5l-7.635-12.725c4.454-1.3 6.5-4.991 6.5-9.36" data-name="Path 611449"/><path d="M97.389 41.003c-4.68-1.612-9.9-1.81-9.9-5.373 0-2.291 2.093-3.337 5.062-3.337a35.206 35.206 0 0 1 9.9 1.414v-5.924a33.934 33.934 0 0 0-10.067-1.414c-6.433 0-11.877 2.559-11.877 9.091 0 5.161 2.573 7.762 7.635 9.5 4.51 1.541 9.615 1.838 9.615 5.33 0 2.6-2.531 3.69-6.193 3.69a33.778 33.778 0 0 1-10.336-1.5v5.91a35.177 35.177 0 0 0 10.675 1.414c8.073 0 12.81-3.521 12.81-10.053 0-5.161-3.393-7.494-7.267-8.823" data-name="Path 611450"/><path d="m133.811 26.864-11.608 32.477h6.306l7.352-20.657h.1v20.657h6.462V26.864Z" data-name="Path 611451"/><path d="m124.455 47.064-7.554-20.2h-8.766v32.477h6.4V38.684h.1l6.55 17.533Z" data-name="Path 611452"/></g></svg>