<svg xmlns="http://www.w3.org/2000/svg" width="268.844" height="48.885"><defs><linearGradient id="a" x1="0%" x2="0%" y1="0%" y2="100%"><stop offset="0%" stop-color="#FF7702"/><stop offset="100%" stop-color="#FE0000"/></linearGradient></defs><g transform="translate(0 .002)"><g fill="url(#a)" transform="translate(0 -.001)"><path d="m260.573 23.756.581 10.4c.194 3.31.542 3.639 3.949 3.659a1.686 1.686 0 0 0 1.917-1.839q.319-5.808.678-11.615l.523-8.75c.213-3.717.445-7.415.62-11.131a3.977 3.977 0 0 0-1.142-3.02 5.052 5.052 0 0 0-3.68-1.419 4.656 4.656 0 0 0-3.427 1.452 4.208 4.208 0 0 0-1.1 3.136q.29 5.459.639 10.918l.465 8.208h-.019Z" data-name="Path 655480"/><path d="M26.154 22.982a11.332 11.332 0 0 0 5.15-7.86 11.671 11.671 0 0 0-3.639-9.989 16.832 16.832 0 0 0-7.4-4.065C13.726-.753 7.3.08 1.336 1.241A1.631 1.631 0 0 0 0 3.139v42.493a1.719 1.719 0 0 0 1.7 1.955l3.891.407c2.555.29 5.208.581 7.821.736.678.039 1.336.058 1.994.058a28.747 28.747 0 0 0 10.125-1.762 13.256 13.256 0 0 0 8.111-8.441 12.814 12.814 0 0 0-1.839-11.19 12.037 12.037 0 0 0-5.672-4.433m-2.455-6.558a5.135 5.135 0 0 1-3.427 3.117 17.215 17.215 0 0 1-4.433.91c-2.168.1-4.317.077-6.6.058H7.2v-14h.136a24.1 24.1 0 0 1 11.054.678 12.775 12.775 0 0 1 2.71 1.3 6.327 6.327 0 0 1 2.594 8M7.221 26.66v-.039l3.7.136c2.9.116 5.788.213 8.673.348a6.112 6.112 0 0 1 1.568.368l.136.039a7.755 7.755 0 0 1 4.8 4.027 7.7 7.7 0 0 1-.077 6.272c-.871 2.033-2.594 3.349-5.44 4.1-4.82 1.3-9.621.7-13.377 0V26.679" data-name="Path 655481"/><path d="M173.629.7a27.733 27.733 0 0 0-8.961-.271c-7.957 1.045-13.319 5.343-15.933 12.757a35.1 35.1 0 0 0-1.045 18.6 21.748 21.748 0 0 0 5.169 11.02c3.717 4.065 8.712 6 15.758 6.079h.174l.658-.039c.484-.019.968-.058 1.433-.1 8.344-.774 13.977-4.975 16.707-12.525a34.1 34.1 0 0 0 .232-23.115A17.8 17.8 0 0 0 173.65.68m-7.221 42.145c-5.15-.484-8.537-3.31-10.357-8.634a29.286 29.286 0 0 1-1.413-9.273 32.4 32.4 0 0 1 1.1-9.234c1.82-6.311 6.176-9.718 12.37-9.718a18.067 18.067 0 0 1 2.013.116 11.225 11.225 0 0 1 10.009 7.7 30.774 30.774 0 0 1 .232 20.83c-2.071 6.234-6.64 8.925-13.958 8.228" data-name="Path 655482"/><path d="m237.168 27.879.542-.213c4.743-1.975 7.492-5.672 8.17-11 .7-5.382-1.026-9.66-5.072-12.719a19.206 19.206 0 0 0-7.84-3.33c-5.846-1.181-11.693-.484-17.171.465a2.118 2.118 0 0 0-2.013 2.42q.058 12.138.019 24.257v17.95c0 1.839.387 2.207 2.246 2.207h.929c.7 0 1.355-.019 2.033.019a2.055 2.055 0 0 0 1.529-.407 2.11 2.11 0 0 0 .523-1.587c-.019-4.472-.019-8.963 0-13.435v-3.505h7.976a.735.735 0 0 1 .832.465c.987 1.7 1.994 3.388 3 5.072 1.936 3.233 3.93 6.582 5.73 9.951.968 1.8 2.3 3.581 4.975 3.581.407 0 5.324-.136 5.324-.136l-11.79-20.017a.1.1 0 0 0 .058-.019M221.042 6.875c0-.271.039-.368.019-.387a.789.789 0 0 1 .31-.077 25.566 25.566 0 0 1 10.686.445A9.021 9.021 0 0 1 238 11.947a8.9 8.9 0 0 1-.523 7.7 5.581 5.581 0 0 1-2.033 2.052 7.513 7.513 0 0 1-3.233 1.045c-2.826.1-5.595.077-8.537.058h-2.632V6.875" data-name="Path 655483"/><path d="M71.26 1.299a2.2 2.2 0 0 0-1.7-.581c-8.808.039-17.752.039-26.561 0a1.95 1.95 0 0 0-1.607.5 2.172 2.172 0 0 0-.5 1.587c.039 14.268.039 28.748 0 43.035a2.243 2.243 0 0 0 .5 1.607 2.133 2.133 0 0 0 1.568.5l27.083-.019a1.629 1.629 0 0 0 1.181-.407 1.5 1.5 0 0 0 .407-1.181v-2.315c0-.736 0-1.239-.387-1.626s-.871-.387-1.626-.368H48.146v-4.337c0-3.736 0-7.473-.019-11.209a2.99 2.99 0 0 0 0-.484 2.618 2.618 0 0 1 .465-.039 834.1 834.1 0 0 0 12.138.019h3.6c.31 0 .619-.019.949-.039l1.3-.058s-.039-3.252 0-3.93a2.055 2.055 0 0 0-.407-1.529 2.191 2.191 0 0 0-1.587-.523c-3.93.019-7.879.019-11.809.019h-4.65v-3.793c0-3.02 0-6.04-.019-9.06v-.406a2.031 2.031 0 0 1 .445-.039c7.008.039 14.016 0 21.043.039a2.219 2.219 0 0 0 1.626-.542 2.253 2.253 0 0 0 .368-1.529V2.906a2.6 2.6 0 0 0-.387-1.607" data-name="Path 655484"/><path d="M142.231.757c-1.026 0-1.994.039-2.943-.039a2.242 2.242 0 0 0-2.517 1.762q-4.907 14.519-9.853 29.039l-2.207 6.485q-3.891-10.106-7.765-20.23l-1.47-3.853q-2.236-5.837-4.491-11.654c-.193-.484-.774-1.428-1.568-1.471-1.22-.078-2.439-.057-3.717-.057h-2.594l.658 1.82c.116.31.213.581.31.852l8.615 22.728q3.833 10.1 7.647 20.209a2.108 2.108 0 0 0 2.3 1.568 35.6 35.6 0 0 1 4.065 0h.213a2.163 2.163 0 0 0 2.226-1.7q6.185-18 12.409-35.969l2.536-7.337a5.748 5.748 0 0 0 .194-.736l.391-1.475h-2.478" data-name="Path 655485"/><path d="M106.9 41.992c-5.169.039-10.357.019-15.545.019H87.31V2.616a1.92 1.92 0 0 0-.484-1.452 2.557 2.557 0 0 0-1.452-.426h-3.117a2.741 2.741 0 0 0-1.646.407 2.318 2.318 0 0 0-.561 1.742v42.822c0 1.839.387 2.207 2.265 2.207h22.9c3.388 0 3.756-.348 3.833-3.62v-.155a2.271 2.271 0 0 0-.484-1.626 2.362 2.362 0 0 0-1.7-.523" data-name="Path 655486"/><path d="M197.443 2.926v43.4a1.4 1.4 0 0 0 1.529 1.607h3.562c1.82 0 2.188-.368 2.188-2.168V.758h-5.111c-1.8 0-2.168.368-2.168 2.168" data-name="Path 655487"/><path d="M264.309 40.598a4.818 4.818 0 0 0-3.407 1.3 3.843 3.843 0 0 0-1.181 2.749 4.356 4.356 0 0 0 4.356 4.182h.116a4.411 4.411 0 0 0 4.588-4.065 3.749 3.749 0 0 0-1.065-2.73 4.78 4.78 0 0 0-3.407-1.433" data-name="Path 655488"/></g></g></svg>