<svg xmlns="http://www.w3.org/2000/svg" width="218.952" height="72.536"><defs><linearGradient id="a" x1="0%" x2="0%" y1="0%" y2="100%"><stop offset="0%" stop-color="#FF7702"/><stop offset="100%" stop-color="#FE0000"/></linearGradient></defs><path fill="url(#a)" d="M66.356 32.78a3.351 3.351 0 0 1 2.31.854 2.649 2.649 0 0 1 .963 2.058 2.614 2.614 0 0 1-.952 2.036 3.358 3.358 0 0 1-2.288.843 3.4 3.4 0 0 1-2.332-.865 2.682 2.682 0 0 1-.963-2.091 2.54 2.54 0 0 1 .952-2.014 3.357 3.357 0 0 1 2.3-.832Zm-2.605 7.359h5.145v17.875h-5.145V40.139Z" data-name="Path 611391"/><path fill="url(#a)" d="M74.063 40.14h5.149v1.85a12.528 12.528 0 0 1 3.186-1.773 8.641 8.641 0 0 1 2.923-.5 7.641 7.641 0 0 1 5.2 1.85 5.888 5.888 0 0 1 1.8 4.664v11.79h-5.154v-7.812a17.22 17.22 0 0 0-.328-4.237 2.9 2.9 0 0 0-1.149-1.6 3.583 3.583 0 0 0-2.025-.547 4.142 4.142 0 0 0-2.682.909 4.694 4.694 0 0 0-1.556 2.506 17.39 17.39 0 0 0-.23 3.624v7.16h-5.145V40.148Z" data-name="Path 611392"/><path fill="url(#a)" d="M96.997 40.14h5.145v1.85a12.528 12.528 0 0 1 3.186-1.773 8.642 8.642 0 0 1 2.923-.5 7.641 7.641 0 0 1 5.2 1.85 5.852 5.852 0 0 1 1.8 4.664v11.79h-5.154v-7.812a17.221 17.221 0 0 0-.328-4.237 2.9 2.9 0 0 0-1.149-1.6 3.608 3.608 0 0 0-2.025-.547 4.142 4.142 0 0 0-2.682.909 4.694 4.694 0 0 0-1.551 2.506 17.388 17.388 0 0 0-.23 3.624v7.16h-5.145V40.148Z" data-name="Path 611393"/><path fill="url(#a)" d="M129.03 39.71a12.175 12.175 0 0 1 5.474 1.259 10.012 10.012 0 0 1 4.007 3.427 8.238 8.238 0 0 1 1.434 4.664 8.474 8.474 0 0 1-1.445 4.718 9.881 9.881 0 0 1-3.941 3.437 12.287 12.287 0 0 1-5.507 1.237 11.133 11.133 0 0 1-7.565-2.726 8.463 8.463 0 0 1-3.131-6.623 8.55 8.55 0 0 1 3.536-6.963 11.27 11.27 0 0 1 7.138-2.43Zm.088 4.237a5.784 5.784 0 0 0-4.018 1.445 4.723 4.723 0 0 0-1.6 3.689 4.849 4.849 0 0 0 1.587 3.744 6.357 6.357 0 0 0 8.057-.011 5.108 5.108 0 0 0 .022-7.422 5.828 5.828 0 0 0-4.051-1.423Z" data-name="Path 611394"/><path fill="url(#a)" d="m162.014 43.793-3.919 2.058a6.65 6.65 0 0 0-2.179-1.522 6.875 6.875 0 0 0-2.529-.427 6.058 6.058 0 0 0-4.269 1.489 4.951 4.951 0 0 0-1.631 3.81 4.765 4.765 0 0 0 1.565 3.7 5.832 5.832 0 0 0 4.127 1.434 6.15 6.15 0 0 0 4.915-2.036l3.711 2.419a10.364 10.364 0 0 1-8.528 3.733 10.514 10.514 0 0 1-7.751-2.781 8.873 8.873 0 0 1-2.8-6.514 8.775 8.775 0 0 1 1.368-4.762 9.415 9.415 0 0 1 3.81-3.427 11.836 11.836 0 0 1 5.463-1.248 11.506 11.506 0 0 1 5.025 1.062 9.487 9.487 0 0 1 3.635 3.021Z" data-name="Path 611395"/><path fill="url(#a)" d="M183.328 50.351h-15.129a4.747 4.747 0 0 0 1.752 3.032 5.621 5.621 0 0 0 3.624 1.128 6.408 6.408 0 0 0 4.521-1.752l3.952 1.773a9.258 9.258 0 0 1-3.547 2.967 11.628 11.628 0 0 1-4.9.963 9.949 9.949 0 0 1-7.171-2.649 8.768 8.768 0 0 1-2.77-6.623 9.156 9.156 0 0 1 2.77-6.776 9.545 9.545 0 0 1 6.936-2.693 9.9 9.9 0 0 1 7.2 2.693 9.449 9.449 0 0 1 2.781 7.1v.854Zm-4.7-3.5a4.5 4.5 0 0 0-1.839-2.376 5.6 5.6 0 0 0-3.186-.909 5.916 5.916 0 0 0-3.459 1.029 5.789 5.789 0 0 0-1.73 2.266h10.214Z" data-name="Path 611396"/><path fill="url(#a)" d="M187.139 40.14h5.145v1.85a12.528 12.528 0 0 1 3.186-1.773 8.642 8.642 0 0 1 2.923-.5 7.641 7.641 0 0 1 5.2 1.85 5.888 5.888 0 0 1 1.8 4.664v11.79h-5.156v-7.812a17.221 17.221 0 0 0-.328-4.237 2.9 2.9 0 0 0-1.15-1.6 3.608 3.608 0 0 0-2.025-.547 4.142 4.142 0 0 0-2.682.909 4.76 4.76 0 0 0-1.555 2.506 17.388 17.388 0 0 0-.23 3.624v7.16h-5.15V40.148Z" data-name="Path 611397"/><path fill="url(#a)" d="M210.73 33.525h5.145v6.623h3.076v3.857h-3.076v14.02h-5.145v-14.02h-2.638v-3.857h2.638Z" data-name="Path 611398"/><path fill="url(#a)" d="M26.759 44.757s.81-6.207-2.441-4.806-2.912 8.867-.854 10.492a2.693 2.693 0 0 0 4.379-2.671c-.545-2.629-1.084-3.015-1.084-3.015Z" data-name="Path 611399"/><path fill="url(#a)" d="M35.769 43.235a2.679 2.679 0 0 0-.69-3.864c-2.31-1.686-4.74 2.474-4.4 5.134.241 1.883 2.846 4.51 4.729 1.828.712-1.007-.328-1.4.361-3.1Z" data-name="Path 611400"/><path fill="url(#a)" d="M48.325 4.689C44.756.211 36.721.726 34.126 1.24c0 0-4.729-2.408-12.414-.515S2.072 8.553.551 15.779c-1.511 7.171 23.395 1.292 25.453.777s25.9-7.4 22.322-11.867Zm-23.48 8.429c-4.817.854-18.873 3.306-17.592.164C9.659 7.349 24.045 5.97 24.045 5.97a2.762 2.762 0 0 1 .886 1.033c.536.865 5.452.175 6.437-.175s2.146-1.894 8.747-.69-11.046 6.214-15.27 6.958Z" data-name="Path 611401"/><path fill="url(#a)" d="M38.494 24.066c-3.47-1.171-14.067 7.805-14.067 7.805-1.182-4.565-4-4.3-4-4.3-4.248-.131-8.977 5.758-8.977 5.758-7.593 8.048-9.564 15.048-9.564 15.048-3.59 9.418-.952 15.691-.952 15.691 4.215 8.386 15.458 8.429 15.458 8.429 8.484.6 21.413-6.032 21.413-6.032 15.315-6.656 13.684-21.139 13.684-21.139-.854-17.987-13.006-21.26-13.006-21.26Zm1.095 36.531a53.136 53.136 0 0 1-21.216 6.273C4.174 67.277 5.816 55.945 5.816 55.945a30.869 30.869 0 0 1 6.187-15.699c5.649-7.729 8.024-7.477 8.024-7.477a4.312 4.312 0 0 1 2 .449c1.095.723 1.139-.088 1.139-.088.58-.9.952-.372.952-.372a2.54 2.54 0 0 0 4.051.131 31.068 31.068 0 0 1 4.819-3.412c3.3-1.96 6.765 1.576 6.765 1.576 6.087 4.937 6.24 16.421 6.24 16.421.405 9.875-6.415 13.137-6.415 13.137" data-name="Path 611402"/></svg>