<svg xmlns="http://www.w3.org/2000/svg" width="244.79" height="44.462"><defs><linearGradient id="a" x1="0%" x2="0%" y1="0%" y2="100%"><stop offset="0%" stop-color="#FF7702"/><stop offset="100%" stop-color="#FE0000"/></linearGradient></defs><g><path fill="url(#a)" d="M244.789 34.425H211.71v-1.121h33.08Zm-16.483-6.275 3.14-3.028 1.233 1.233-3.364 2.8c-.224.336-.449.9-.673 1.233h-2.467a4.171 4.171 0 0 1 2.131-2.243ZM217.765 9.083c-.112 0-2.579.673-2.579.673a15.8 15.8 0 0 0-1.682.785c-.561.336-1.121.9-1.121 1.233l2.243.561a8.569 8.569 0 0 1 1.009-1.009l.561-.224 1.794-1.906c.112-.112.112-.224-.28-.112Zm15.138 6.055a50.023 50.023 0 0 1-3.813-4.71 13.579 13.579 0 0 0 .9-6.616 17.2 17.2 0 0 0-1.57-2.355c-.224-.336-1.234-1.458-1.682-1.458-.112 0-.224 0-.224.112l.112 1.233c-1.458.9-3.14 2.018-4.6 3.14a4.622 4.622 0 0 0 .112 1.346 2.815 2.815 0 0 0 .785.449 28.683 28.683 0 0 1 3.028-.561l-1.906 2.8-2.243 1.57-2.691-.9c-.224 0-.336 0-.449.112l-2.018 2.131a.583.583 0 0 0-.224.449l-.112 2.355v.785a4.093 4.093 0 0 0 .785 2.579l1.233-1.906a4.856 4.856 0 0 1-.561-1.346v-2.012l1.234-.9 3.364 2.355a16.936 16.936 0 0 0 1.794 2.691 31.813 31.813 0 0 0 4.822 3.476 14.334 14.334 0 0 0 .673 2.579l4.037 4.149-2.355 3.028a2.949 2.949 0 0 0-1.57 2.467h2.8l.336-1.57 3.364-3.7c.224-.224.224-.336.112-.561l-.9-3.14a5.921 5.921 0 0 0 1.458-3.476c0-3.028-3.028-3.813-4.037-4.654Zm5.046 4.934a14.634 14.634 0 0 0-.785-2.131s.112-.112.449 0a20.809 20.809 0 0 1 2.018 1.346c.9 1.233 1.458 6.616 1.458 8.522a9.8 9.8 0 0 1-2.691-1.682Zm-85.899-1.233c0-2.018-.673-3.588-2.355-3.588s-2.467 1.57-2.467 3.588v13.344h2.022v2.131h-11.325v-2.131h2.131v-18.39h-2.131v-2.075h8.859v3.476h.112a6.47 6.47 0 0 1 5.943-3.925 5.685 5.685 0 0 1 5.943 4.71 21.61 21.61 0 0 1 .336 3.7v12.56h2.691v2.131h-9.868l.112-15.587m-45.863 0c0-2.018-.673-3.588-2.355-3.588s-2.467 1.57-2.467 3.588v13.344h2.018v2.131H92.062v-2.131h2.131V13.793h-2.131v-2.075h8.859v3.476h.112a6.47 6.47 0 0 1 5.943-3.925 5.685 5.685 0 0 1 5.943 4.71 21.608 21.608 0 0 1 .336 3.7v12.56h2.695v2.131h-9.868l.112-15.587Zm65.374-5.046v16.707a1.346 1.346 0 0 0 1.458 1.458 4.889 4.889 0 0 0 1.346-.224v2.018a8.4 8.4 0 0 1-4.373.9c-3.476 0-5.607-1.682-5.607-5.382V13.793h-2.355v-1.458c2.691-2.131 5.831-4.6 8.3-6.616h1.346v6h3.42v2.018ZM30.164 0s5.495 5.495 7.962 8.3v2.131a17.538 17.538 0 0 0-11.662-4.6c-10.2 0-16.6 7.737-16.6 17.269s6.055 17.157 16.6 17.157a16.069 16.069 0 0 0 11.774-4.99v2.018c-3.14 4.373-8.971 7.177-16.259 7.177C8.971 44.573 0 35.15 0 23.156a21.687 21.687 0 0 1 21.978-21.53 26.06 26.06 0 0 1 8.186 1.346Zm104.4 28.37a6.033 6.033 0 0 1-4.934 2.131c-2.018 0-5.27-1.121-5.382-6.392h12.111c0-.449.112-1.233.112-1.682 0-6.392-2.579-11.1-9.419-11.1s-10.316 5.27-10.316 11.774 3.476 11.662 10.316 11.662a9.262 9.262 0 0 0 8.859-5.27Zm-10.428-6.5c0-5.943.449-8.186 2.467-8.186s2.467 2.131 2.579 8.186Zm-99.915 1.118c0-6.952.673-9.98 3.028-9.98s3.028 3.028 3.028 9.98-.673 9.98-3.028 9.98-3.028-3.028-3.028-9.98m-8.41.112c0 6.84 4.149 12.45 11.439 12.45s11.436-5.61 11.436-12.45-4.149-12.5-11.438-12.5-11.437 5.603-11.437 12.444m38.8-4.261c0-2.018-.673-3.588-2.355-3.588s-2.467 1.57-2.467 3.588v13.344h1.961v2.131H40.481v-2.131h2.131V13.793h-2.131v-2.075h8.859v3.476h.11a6.47 6.47 0 0 1 5.943-3.925 5.685 5.685 0 0 1 5.943 4.71 21.608 21.608 0 0 1 .336 3.7v12.56h2.691v2.131h-9.866V18.839Zm25.677-13.12c0 2.018 1.794 3.364 4.373 3.364s4.373-1.346 4.373-3.364-1.794-3.364-4.373-3.364-4.373 1.458-4.373 3.364m-6.167 8.074v16.707a1.346 1.346 0 0 0 1.458 1.458 4.889 4.889 0 0 0 1.346-.224v2.018a8.4 8.4 0 0 1-4.373.9c-3.476 0-5.607-1.682-5.607-5.382V13.793h-2.356v-1.458c2.691-2.131 5.831-4.6 8.3-6.616h1.29v6h2.8v2.018Zm132.319 18.5h2.8v2.131h-9.98V5.495h-2.467V3.364h9.7v28.931Zm-19.175-9.083a2.142 2.142 0 0 0-1.57-.449c-2.131 0-2.579 2.131-2.579 4.261s.673 3.813 2.467 3.813a1.974 1.974 0 0 0 1.682-.673Zm.224 8.522a6.93 6.93 0 0 1-5.943 3.14c-3.7 0-5.943-3.14-5.943-6.952 0-4.485 3.252-7.4 8.41-7.4a9.554 9.554 0 0 1 3.252.449v-1.458a3.835 3.835 0 0 0-4.149-4.149 6.313 6.313 0 0 0-5.158 2.691l-1.233-1.57a10.776 10.776 0 0 1 8.971-5.158c5.495 0 8.746 3.252 8.746 8.186v12.784h2.355v2.131h-9.2ZM79.05 34.369v-2.13h2.018V13.793H79.05v-2.075h9.2v20.521h2.13v2.131Z" data-name="Path 611390"/></g></svg>